# xmcd
#
# Track frame offsets: 
#        150
#        9866
#        19023
#        28222
#        38285
#        45936
#        56333
#        69489
#        82052
#        94001
#        105786
#        117399
#        128778
#        140585
#        153577
#        163681
#        177410
#        193004
#        204292
#        214846
#        227703
#        242884
#        254732
#        269088
#        281284
#        293414
#
# Disc length: 4095 seconds
#
# Revision: 0
# Processed by: cddbd v1.5.2PL0 Copyright (c) Steve Scherf et al.
# Submitted via: ExactAudioCopy v1.0b1
#
DISCID=660ffd1a
DTITLE=Various Artist - Curtis Mayfield's Windy City Winners
DYEAR=2011
DGENRE=R&B
TTITLE0=The Fascinations - Girls Are Out To Get You
TTITLE1=The Five Stairsteps and Cubie - Stay Close To Me
TTITLE2=The Fascinations - Crazy
TTITLE3=The Mayfield Singers - Don't Start None
TTITLE4=The Amazers - Without A Warning
TTITLE5=The Symphonics - Guilty
TTITLE6=The Mayfield Singers - My Baby Changes Like The Weather
TTITLE7=Saxie Russell - Psychedelic Soul - Part 1
TTITLE8=June Conquest - What's This I See
TTITLE9=Mamie P. Galore - You Got The Power
TTITLE10=Jamo Thomas and His Party Brothers Orchestra - I Spy (For The F
TTITLE10=B.I.)
TTITLE11=The Fantasions - G.I. Joe, We Love You
TTITLE12=The Mayfield Singers - Lucky
TTITLE13=The Winstons - Need A Replacement
TTITLE14=Freddie Waters - Singing A New Song
TTITLE15=Billy Butler - She's Got Me Singing
TTITLE16=The Natural Four - Love's So Wonderful
TTITLE17=Marvin Smith - Who Will Do Your Running Now
TTITLE18=Major Lance - Little Young Lover
TTITLE19=Chuck Ray - Reconsider
TTITLE20=New World - We're Gonna Make It
TTITLE21=Ruby Jones - You Better Run
TTITLE22=The Notations - Think Before You Stop
TTITLE23=The Jones Girls - If You Don't Love Me No More
TTITLE24=Linda Clifford - Can't Get Enough
TTITLE25=Gene Chandler - Don't Have To Be Lying, Babe
EXTD=
EXTT0=
EXTT1=
EXTT2=
EXTT3=
EXTT4=
EXTT5=
EXTT6=
EXTT7=
EXTT8=
EXTT9=
EXTT10=
EXTT11=
EXTT12=
EXTT13=
EXTT14=
EXTT15=
EXTT16=
EXTT17=
EXTT18=
EXTT19=
EXTT20=
EXTT21=
EXTT22=
EXTT23=
EXTT24=
EXTT25=
PLAYORDER=
